<svg id="Layer_1" data-name="Layer 1" xmlns="http://www.w3.org/2000/svg" viewBox="0 0 447.22 392.93"><path d="M325.55,178.94c26.13,0,52.27,0,78.4,0a43.89,43.89,0,0,1,34.34,16.67c3.47,4.41,6,9.45,8.86,14.27Q519.62,335.5,592,461.19A46.12,46.12,0,0,1,597.16,490c-1,7-4.63,13.13-7.9,19.24-12,20.88-24.16,41.63-36.08,62.53l-1.94-2.08Q438.41,374.28,325.55,178.94Z" transform="translate(-150.46 -178.87)" style="stroke:#000;stroke-miterlimit:10.43;stroke-width:0.09375000000000001px"/><path d="M186.57,418.25q50.84-87.79,101.61-175.62Q339,330.44,389.77,418.25Z" transform="translate(-150.46 -178.87)" style="stroke:#000;stroke-miterlimit:10.43;stroke-width:0.09375000000000001px"/><path d="M150.52,482.63q138.25,0,276.53,0,25.38,44.32,50.79,88.64c-86.92-.06-173.84.09-260.75-.08-11.91-2.25-22.18-10.66-28.27-21q-15-26-30.07-52C156.09,493,152.25,488.28,150.52,482.63Z" transform="translate(-150.46 -178.87)" style="stroke:#000;stroke-miterlimit:10.43;stroke-width:0.09375000000000001px"/></svg>