<svg id="Layer_1" data-name="Layer 1" xmlns="http://www.w3.org/2000/svg" viewBox="0 0 631.35 158.94"><path d="M148.52,277.2c-.1-4.61,6.44-5.7,9.21-2.86a20.4,20.4,0,0,1,3.36,5.6c3.46-2.91,8-5.11,12.61-5.13-1.47,2.91-4.53,4.2-6.95,6.13,6.77-.62,12.62,3.32,19.19,3.92,5.37-.94,11-.58,16.14-2.6,3.13-1.11,6.56-.93,9.64-2.27,1.92-.9,4-.69,6.07-.64l-.24-3.16a30.17,30.17,0,0,1,5.93.38c2.79.83,5.38-.91,8.07-1.34-2,1.9-4.82,2.26-7.44,2.72-4.31,1.28-8.29,3.55-12.71,4.52-.13.71-.41,2.14-.55,2.85-.08-.91-.26-2.71-.35-3.61-8.73,5-19.24,5.28-28.32,9.53-6.73,1.28-13,4.18-19.77,5.44,0,7.17,2,14.19,1.81,21.37s3.3,13.78,2.51,20.94c-.55,6.19,1.83,12,2.61,18.06l2.6.4c-1.73-6.71.14-13.58-.78-20.36-.53-8.45,5.24-15,8.73-22.16,3.08-2,6-4.24,9.25-5.94,4.2-.55,8.43.28,12.6.79,3.61.13,5.35,3.72,8.16,5.42-1.51-2.81-4.64-4.62-5.07-8-.4-2.31-1.58-4.61-1.38-7a8.38,8.38,0,0,0,4-8.27c2.43-1,5-.55,7.54-.41,9.73-2.93,21.52-1.89,29.37,5.07,4.18,3.58,5.5,9.2,6.71,14.33,1.69,7.2-2.11,14.16-6.27,19.76-2.29,3.29-5.82,5.34-8.67,8.07,3.93,4.53,9.74,6.89,13.43,11.67,2.61,3.72,7.65,3.4,11.12,5.86,3.07,1.76,3.51,5.7,6.06,7.94,1.61,1.44,3.2,2.89,4.73,4.42a59.89,59.89,0,0,1,1.07-8.13c1.15-5.4-.56-10.95.73-16.34-3.78,2.45-8,5.44-12.79,4.29a12.7,12.7,0,0,1-8.49-11.63c2,2.94,2.89,7.14,6.52,8.52,2.68.82,5.36,3.05,8.25,1.75a7.32,7.32,0,0,0,4.21-3.78c-2.7.05-5.26,1.25-7.95,1.08-6.2-2.19-9-9.27-8.8-15.43.32-5.4-.53-11.11,1.75-16.19a55.9,55.9,0,0,1,4.67-8.34,26.75,26.75,0,0,1,6.82-4,35.53,35.53,0,0,1,8.92.31c3,1.44,5,4.27,7.06,6.85.44.88,1.39,1,2.25,1.27.22,4.51-.29,9.09.57,13.55,1.18,6.14-1.25,12.25-.4,18.41.72,1.66,1.59,3.23,2.35,4.88a22.8,22.8,0,0,1,7.52-7.94c8.3-1.49,16.89-2.45,25.22-.6,1.58.47,2.24,2.2,3.26,3.35a38.9,38.9,0,0,1,11.27-1.15,9.44,9.44,0,0,0,7,2.44c-1.47.92-3.3,2.15-5.06,1.23-2.49-1.54-5.42-.16-8-1.34-1.93-1-3.8.31-5.64.8-4.12,1-8.22,2.13-12.48,2.26-6.59,2.17-13.66,1.94-20.29,3.95-1-.84-2-1.66-3-2.45-4.24,3.78-3.33,9.78-4.23,14.85.26,5.68-2.19,10.95-2.5,16.59,7.33,6.82,16.12,11.95,24.18,17.89,5.8,4.49,12.71,7.47,18,12.58a16.3,16.3,0,0,1-3.36-1.32c-13-7.61-26.19-14.77-38.72-23.08l-.16,2.75c-4.54.8-4.28,5.95-6.67,8.89-4.28,3.45-10.05,4-15.35,3.9-6.31.52-12.33-2.49-16.94-6.58-6-6.77-4.57-19,3.76-23.21-.43-.74-.87-1.47-1.31-2.19,1.67.33,3.35.66,5,1-1.62,5.25-1.58,11.49,2,15.93,3,.49,6.26-.44,9.09,1.13a62.91,62.91,0,0,1-8,.93c2.06,1.54,4.06,3.3,6.51,4.22,2.47.42,4.67-1.05,6.88-1.89l-4.11-1.08c.29-.89.59-1.76.9-2.63,1.4.36,2.79.75,4.19,1.15a72.77,72.77,0,0,0,2.72-7.58c-6-3.29-10.81-8.62-17.36-11-4.07-1.31-7.47-4-11.28-5.83-.95,2-1.9,4.17-3.9,5.39a12.47,12.47,0,0,1,2.72-6.29c-4.71-2.36-9.33-4.92-14.19-6.94,1.07,5.28,2.63,10.64,1.74,16.1-1,5.74-.1,11.55-.15,17.32-3.46-2.26-1.45-7.21-3.56-10.3-.63-.95-1.28-1.87-1.95-2.77l-2,1.44q-1.77,12.25-3.18,24.58c-.56,5.07-.48,10.22-1.54,15.23-1.77-11.41.37-23.06,0-34.56-.44-9.09,1.33-18.28-.86-27.24-4.78,2.38-7.41,7.15-10,11.57-2.7.24-5.71.19-7.75,2.3-2.75,2.92-7.12,2.56-10.69,3.81-4.55-.63-9-3.11-11-7.38-1.84-2.36-1.72-6.87-5.65-6.55.06,4.11,1.17,8.08,2,12.08,2,1.3,4.21,2.39,5.86,4.15a14.72,14.72,0,0,1,0,10.92c-1.16.82-2.38,1.57-3.57,2.35v2.79c-4.52-1-8.75-3.29-13.49-3.08a27.06,27.06,0,0,1-12.25-2.19l-1,2.41c-3.11-2.66-6.83.31-10.26-.48-17-7.67-36.17-7.57-54.5-8.32-9.16-.92-18.4.05-27.56-.76,6.39-1.62,13.07-.64,19.55-1.52q18-.81,36-1.47c7.56-1.91,15.34-1.09,23-1.06,3.41.18,6.62-1.15,10-1.53,3.14-.15,6.27-.15,9.41-.32.39-5-.08-10.14,2.15-14.78.19-3.29-1.84-6.37-2.53-9.58,5.72-8.33,7-18.66,7.62-28.51.85-6.83.47-13.7.59-20.55-2.79,1.87-6.09,2.7-9.14,4-1.61-1.21-3.19-2.45-4.89-3.53-.22-1.47-.46-2.93-.68-4.39-1.52-.64-3.06-1.24-4.56-1.92,1.57.2,3.14.45,4.71.67C147.37,287.84,149,282.63,148.52,277.2Zm80.1,26.35a32.74,32.74,0,0,0-1.89,4.34c.84,4.1.73,8.32,1.69,12.4a20.35,20.35,0,0,1,0,8.08c.87.24,1.74.5,2.61.76-1.26.66-2.51,1.35-3.73,2.07l3.52.15a19.9,19.9,0,0,0-3.85,4c4.1.71,7.05-3.06,9.4-5.84,3-6.62,5.85-14,4.68-21.35C239.57,302.49,233.23,302.62,228.62,303.55ZM264.09,321c-2.93,4.81-1.36,10.91,1.57,15.31,1.92,3.12,5.62.47,8-.64-.1-4.23-.23-8.46.07-12.68.35-3.14-1.48-5.92-3.67-8C267.75,316.69,265.14,318.21,264.09,321Zm-74.27,11.77c-2.58.69-3.36,3.41-4.54,5.48-3.9,6.8-2.2,15.72,2.43,21.75a42,42,0,0,0,2.06-5.29c-1.29-.26-2.57-.5-3.84-.8l2.6-1c.4-1.16.86-2.29,1.33-3.41l-2.57,0a13.39,13.39,0,0,0-1.93-7.72c1.72,1,3.44,2,5.2,2.89.55-3.24-2.67-8,1.1-9.88,1.69,6.39.27,12.85-.47,19.24-.56,2.79-1.9,5.36-2.21,8.21a37.21,37.21,0,0,0,10.52-4.79c5.73-4,6.9-11.29,8.67-17.51.25-3.6,1.4-7.82-1.33-10.8-2.28-3.13-6.53-2.49-9.89-2.37C193.21,326.68,192.91,331.67,189.82,332.77Z" transform="translate(-54.17 -272.73)" style="stroke:#000;stroke-miterlimit:10.43;stroke-width:0.09375000000000001px"/><path d="M507.24,285.24" transform="translate(-54.17 -272.73)" style="stroke:#000;stroke-miterlimit:10.43;stroke-width:0.09375000000000001px"/><path d="M556.6,295.64c-.68-3.91,1.34-7.76,4.18-10.35a32.86,32.86,0,0,1,5.53,3.38,48.26,48.26,0,0,1,3,6.43c.52,1.73-.7,3.8.42,5.33,5.37,1.27,10.3-4,15.59-1.56,4.07,1.56,8.43,1.83,12.67,2.65,5,.31,10-.69,15-.32a49,49,0,0,0,14.44-.89c1.79-1.29,2.11-3.91,3.38-5.69-.11,1.69-.25,3.39-.42,5.08,2-.14,4.06-.19,6.11-.28.57.77,1.16,1.54,1.77,2.3,9-.47,18-1,27-1.55-4,1.15-7.25,4.17-11.51,4.24-4,.08-7.77,1.65-11.76,1.32-3.51-.28-6.89.94-10.38,1.13a9.18,9.18,0,0,0,1.67,5.9c1.13,1.7-.92,3.44-.69,5.26,0,7-1.27,14-1.44,21-.35,6.58-2.25,13-1.83,19.65,3.18.24,6.36.46,9.55.63-2.45-6,2.74-12.11,0-18-1.54-4.49-.79-9.31-1.6-13.92-.75-2.55-1.68-5-2.31-7.64,2.72-.08,4.32-2.21,5.29-4.49a23.31,23.31,0,0,1,11.07.4c1.48,2.58,3.5,5.17,3.3,8.33,0,7.77-1.9,15.39-1.89,23.17.33,4.42-1.58,8.57-1.5,13,8.57.36,17.14.54,25.73.45,2.76.06,5.63-.26,8.3.69-11.31,1.17-22.7,1.06-34,2.07.38,6.42.57,12.91-.93,19.22-1.6,15.26.33,30.92-3.29,46-.59-17.05-.6-34.16-2.8-51.12-.68-4.69-2.26-9.17-3-13.84a93.24,93.24,0,0,0-12.73.57A104.64,104.64,0,0,1,626.14,382c-.34,3.38,1.19,6.59,1.3,9.95-.36,2-.86,4-1.18,6.05,3.64,3.25,2,8.61.26,12.47.06-4.12.31-8.33-2.3-11.8.4-7.29-.46-14.77,1.41-21.91-3.16-2.93-4.12-7.16-4.21-11.32-3.29-.05-6.58-.19-9.86-.29-.93,5.8-1,11.81-2.87,17.42-.68,2.25-3,3.11-4.83,4.25-1.38-3.3-3.38-6.34-3.81-10-1.38-3.5.28-7.09.62-10.62-6.26.58-12.58.28-18.8,1.3-6.33.69-13.78,2.4-19-2.37a17.43,17.43,0,0,1-.55-11.47,45.28,45.28,0,0,0,4.45-2.64l-1-2.93-3,.19a17.13,17.13,0,0,0-10.24-1.9,26.17,26.17,0,0,1,4.1-3.77c0-.7-.11-2.09-.15-2.79a30.29,30.29,0,0,1,3.59,6.28,17.14,17.14,0,0,1,7.64-8.41c8.24-1.39,16.73-2.37,25-.54,1.64.43,2.26,2.26,3.28,3.45,2.5-.82,6.5-.44,6.54-4-.18-3.83-1.15-7.69-1.08-11.6-2.36-.43-4.65.35-6.88,1a12.64,12.64,0,0,1-1,7.4c-.06-2.15,0-4.3,0-6.45a11.4,11.4,0,0,0-4.18,2.15c-3-1.69-6.29-.43-9.41-.11-2.42.4-4.88.4-7.27.88s-3.86,2.48-5.88,3.58c-1.49.06-3,0-4.45.2-.58-4.75-3.31-9.7-1-14.4,1.77-3.89,6.53-4.54,10.32-4,8.47,1.47,16.92-1.12,25.41-.85,3.72,0,7.28-1.69,11-1,4.21-.38,7.9,1.76,11.84,2.81a25.41,25.41,0,0,0-.15,5.65c-.85,2.74-3.21,4.89-3.48,7.87-.7,5.52-.83,11.1-1.73,16.61a8.76,8.76,0,0,0,.74,5.37l2.93-.08a60.27,60.27,0,0,0-5.06,3.76c1.37.39,2.74.81,4.11,1.25.7-.62,1.41-1.24,2.13-1.85l-.24,2.41,2.11.22c-1.48-7.14.31-14.3.44-21.46.3-5.29,0-10.77,1.6-15.88,2.1-4.49,3.78-9.34,8-12.29-1.73-.54-3.48-1.17-5.3-.79-3.67.48-7.52-.4-11,.94-2.47,1-5.23.3-7.76,1-7.34,2.44-15.47.54-22.68,3.51-4.37,1.48-9.09.86-13.56,1.91-6,.06-11.83,1.66-17.73,2.61,1.84,4-.13,8.11-.3,12.22-.16,7-2,13.91-1.27,21L555,351c-1.63,4.15-1,8.73-2.73,12.86a31,31,0,0,1,4.1,3.76c7.69,8.77,17.32,15.51,26.83,22.14,5.58,3.76,10.88,8,16.69,11.37,3.25,2.27,6.89,4.11,9.59,7.08-2.61-.7-4.84-2.26-7.14-3.59-10-6-20.42-11.37-30.12-17.87-6-4-12.66-6.52-18.94-9.86-1.39,8.31-.45,16.74-.66,25.12a38.28,38.28,0,0,0-.15,8.95c1.2,5.42-2.36,10.17-2.81,15.47a2.82,2.82,0,0,1-1.68-2.21c-.83-4.2-.71-8.51-1.2-12.74-1.07-8.47-.13-17-.57-25.53-.56-5.17-.87-10.36-1.61-15.51a43,43,0,0,0-6.16-3c-4-1.26-7.19-3.93-10.93-5.63a25.71,25.71,0,0,1-3.52,5.4,8.11,8.11,0,0,1,2.33-6.39c-4.72-2.35-9.33-5-14.23-6.91.91,5.36,3,10.77,1.73,16.27-1.33,5.67,0,11.44-.13,17.16-3.29-2.2-1.67-6.75-3.29-9.85-.85-1.45-2.13-4.07-4-2.32-1.68,8.84-2.39,17.85-3.57,26.77-.71,4.72,0,9.64-1.66,14.21-1.27-11.72.62-23.49.2-35.24-.38-9.07,1.48-18.27-.88-27.18-4.78,2.38-7.35,7.13-9.9,11.56-2.76.15-5.79.23-7.84,2.36-2.57,2.71-6.58,2.35-9.87,3.55-5.44.19-10.41-3.67-12.55-8.58-4.92-7.82-1.84-17.21-3.16-25.75-1.46,4.82-.44,9.93-1.34,14.81-2.74,9.9.58,20.36-2.14,30.28-1.14,15.8-.2,31.87-3.18,47.5-1.15-21.5-.07-43.41-5.63-64.4-.56-3.31-2.69-6.07-3.57-9.26.28-3.67,1.53-7.19,2-10.84-.88-3.29-2.29-6.5-2-10,.28-5.32-1.4-10.35-3-15.32,2.77.15,4.37-2.13,5.21-4.48,4.37-.61,10.95-1.73,13,3.36,2.28,3.79,1.16,8.38,1.18,12.55,2-5.79,5.84-10.65,8.35-16.2,4.22-2.21,7.77-6.82,13-6.16a80.38,80.38,0,0,1,13,1.79q-1.19-5-2.62-9.89c2.89-2.12,4.9-5.19,4.39-8.9a17.08,17.08,0,0,1,7.19-.15c10.61-3.3,23.84-1.77,31.57,6.9,1.62,1.53,2.11,3.81,3.16,5.71a5.63,5.63,0,0,0,1.61-6.16c2.47,1.75,4.66-.28,6.76-1.59C548.18,298,552.77,298.3,556.6,295.64Zm-64.23,15.55c-.37,1.54,1.72,3.6,3.24,3.53C496,313.12,494.05,310.79,492.37,311.19Zm21.13.8c0,5.57,2.92,11.18.87,16.63h3.86c-1.62.85-3.28,1.62-4.87,2.51l3.51.27a25.57,25.57,0,0,0-3.69,3.88c3.9.94,6.67-2.57,9-5.12a49.42,49.42,0,0,0,5.29-16.27C523,312.23,518.17,312.55,513.5,312Zm24.43.24c-.11,10.92-6.94,20.55-15.73,26.52,3.95,4.5,9.7,6.93,13.42,11.67,1.48,2,3.79,3.07,6.11,3.85a22.69,22.69,0,0,0-.53-11.68,46.21,46.21,0,0,1-1.79-15.34,36.67,36.67,0,0,1,3.22-6.79C540.13,318.3,539.1,315.19,537.93,312.23Zm-56.64,14.92c-2.33,2.1-3.5,5.44-6.76,6.38a22.14,22.14,0,0,0-5.42,14.33c1.48-.12,3-.21,4.46-.3A39.43,39.43,0,0,0,472,342c1.61.93,3.22,1.88,4.86,2.79.17-3.3-2.43-7.9,1.11-10.09,1.6,9.29-.23,18.71-2.92,27.59,5.62-1.69,11.68-4.22,14.94-9.4A57.23,57.23,0,0,0,494.31,340c.1-3.42,1.34-7.34-.93-10.34C490.78,325.63,485.28,326.54,481.29,327.15ZM583,344.79c-5.39,2.07-11.43,1.29-16.67,3.74,2.73.86,5.45,1.82,8.22,2.6,4.61.91,9.48-.1,14,1.58,4.19,2,8.65-.33,12.92-.95,0-3.35.32-6.7.37-10.05l-2.9-.31C593.77,343,588.47,344.52,583,344.79Zm-114,3.64c1,4.14,2.15,8.35,5,11.68.66-1.8,1.27-3.61,1.86-5.43l-3.37-.63,2.37-1.46c-.41-1.36-1-2.67-1.43-4Z" transform="translate(-54.17 -272.73)" style="stroke:#000;stroke-miterlimit:10.43;stroke-width:0.09375000000000001px"/><path d="M532.61,296.23a21.53,21.53,0,0,1,5-4.15c.9,1.77,1.72,3.59,2.56,5.4A36.35,36.35,0,0,0,532.61,296.23Z" transform="translate(-54.17 -272.73)" style="stroke:#000;stroke-miterlimit:10.43;stroke-width:0.09375000000000001px"/><path d="M430.14,305.54c0-4.09,2.21-7.64,4.29-11-.25,2.28-.93,4.59-.16,6.85,1.16,3.91-.38,8.77,2.79,11.89-1.85,4.63-1.12,9.71-1.81,14.55-.62,4.28-.59,8.6-.84,12.91-1,6.66-2.22,13.33-1.76,20.1-1.42,6.56-1.54,13.32-2.73,19.93-1.38-1.84-1.13-4.38-2.7-6.12-3.62-4.81-2.09-11.17-2.68-16.74-1.18-9.62.65-19.23.76-28.86A25.2,25.2,0,0,1,427,319c2.14-4,3.52-8.46,7.52-11C433,307.19,431.58,306.39,430.14,305.54Z" transform="translate(-54.17 -272.73)" style="stroke:#000;stroke-miterlimit:10.43;stroke-width:0.09375000000000001px"/><path d="M294.86,311.5c4.61-1.28,8.35-4.88,13.29-5a16.51,16.51,0,0,1-5.94,2.37C299.8,310,297.66,314,294.86,311.5Z" transform="translate(-54.17 -272.73)" style="stroke:#000;stroke-miterlimit:10.43;stroke-width:0.09375000000000001px"/><path d="M463.59,307q2.09-.69,1.44,1.41Q462.92,309.07,463.59,307Z" transform="translate(-54.17 -272.73)" style="stroke:#000;stroke-miterlimit:10.43;stroke-width:0.09375000000000001px"/><path d="M669.32,307.2c1.41-1.22,3.22,1.29,1.61,2.24C669.49,310.6,667.7,308.17,669.32,307.2Z" transform="translate(-54.17 -272.73)" style="stroke:#000;stroke-miterlimit:10.43;stroke-width:0.09375000000000001px"/><path d="M430.24,309.23" transform="translate(-54.17 -272.73)" style="stroke:#000;stroke-miterlimit:10.43;stroke-width:0.09375000000000001px"/><path d="M437.33,309.91c1.35-.45,1.8,0,1.37,1.49C437.34,311.84,436.88,311.35,437.33,309.91Z" transform="translate(-54.17 -272.73)" style="stroke:#000;stroke-miterlimit:10.43;stroke-width:0.09375000000000001px"/><path d="M325,314.45c3,.12,5.92-1.13,8.93-1.26,2.91.55,5.95,1.5,7.95,3.82l2.85-1.11c-1.64,2-2.46,4.66-4.39,6.44A38.54,38.54,0,0,1,328,324.81c-3.8-.05-7.1,2.18-10.13,4.21-3.12-1.25-6.55-.8-9.67.15a30.15,30.15,0,0,0,.16,3.14L306,333.43a6.51,6.51,0,0,0,1.1-3.43c-3.53-1.58-7.88-.09-10.62,2.47-1.56,1.67-3.92.76-5.91,1.11-.51-4.68-3.44-9.51-1.06-14.13,1.64-4.07,6.65-4.75,10.48-4.16C308.3,316.77,316.63,314.18,325,314.45Z" transform="translate(-54.17 -272.73)" style="stroke:#000;stroke-miterlimit:10.43;stroke-width:0.09375000000000001px"/><path d="M405.11,321.07c.61-3.54,3-7.23,6.88-7.56,4.07-.64,7.55,2.05,11.42,2.73a39.78,39.78,0,0,0,0,5.46c-1.41,2.77-3.61,5.28-3.91,8.5-.56,5.94-.94,11.91-1.86,17.82-.13,1.68,1.57,3.14,1.06,4.79-1.7,2.92-2.49,6.22-4,9.23a90.07,90.07,0,0,1-2.35,19.54c-.56,2.91-3.32,4.28-5.71,5.48-.22-1,.13-2.3-.6-3.16-2.32-2.77-2.33-6.59-3.35-9.9a53.48,53.48,0,0,0,1.24-11.77c-13.33,0-26.59,1.58-39.93,1.44-5.07-.23-10,1.28-15,1.74-6.79.25-13.69-1.08-20.4.5-3.14.79-6.39.66-9.6.81-6.71.21-13.32,1.87-20.05,1.67-3,.05-5.65-1.57-7.93-3.29-1.44-3.65-1.25-7.59-.5-11.36q2.06-1,4-2.09l-.09-3c4.47,1.11,8.76,3.19,13.48,3A33,33,0,0,1,320,353.65c3.69-.27,7.21-1.66,10.92-1.88,10.55,4.8,22.18,6.82,33.72,7.41,13.14,1.31,26.36,1.41,39.55,1.4-.27-7.22,1-14.37,1.11-21.58C406.67,333,403.44,327,405.11,321.07Z" transform="translate(-54.17 -272.73)" style="stroke:#000;stroke-miterlimit:10.43;stroke-width:0.09375000000000001px"/><path d="M267.64,318.92l1.79-.47c-.56,4.63-.08,9.56-1.84,13.95C267.63,327.9,267.69,323.41,267.64,318.92Z" transform="translate(-54.17 -272.73)" style="stroke:#000;stroke-miterlimit:10.43;stroke-width:0.09375000000000001px"/><path d="M396.37,333.25c-.32-5.1,3.47-8.95,4.86-13.6,1.77,2.81-1.1,5-2.51,7.12C397.81,328.88,397.59,331.25,396.37,333.25Z" transform="translate(-54.17 -272.73)" style="stroke:#000;stroke-miterlimit:10.43;stroke-width:0.09375000000000001px"/><path d="M231.26,326.22" transform="translate(-54.17 -272.73)" style="stroke:#000;stroke-miterlimit:10.43;stroke-width:0.09375000000000001px"/><path d="M517.39,326.22" transform="translate(-54.17 -272.73)" style="stroke:#000;stroke-miterlimit:10.43;stroke-width:0.09375000000000001px"/><path d="M421.17,331.25c1.63-.87,1.86,1.62.48,2C420.06,334.23,419.71,331.54,421.17,331.25Z" transform="translate(-54.17 -272.73)" style="stroke:#000;stroke-miterlimit:10.43;stroke-width:0.09375000000000001px"/><path d="M578.24,331c1.69-.59,2.21-.08,1.56,1.51Q577.25,333.37,578.24,331Z" transform="translate(-54.17 -272.73)" style="stroke:#000;stroke-miterlimit:10.43;stroke-width:0.09375000000000001px"/><path d="M618.13,331.19c1.19.66,1.13,1.38-.18,2.14C616.74,332.64,616.8,331.92,618.13,331.19Z" transform="translate(-54.17 -272.73)" style="stroke:#000;stroke-miterlimit:10.43;stroke-width:0.09375000000000001px"/><path d="M185.15,348.1" transform="translate(-54.17 -272.73)" style="stroke:#000;stroke-miterlimit:10.43;stroke-width:0.09375000000000001px"/><path d="M557.21,348" transform="translate(-54.17 -272.73)" style="stroke:#000;stroke-miterlimit:10.43;stroke-width:0.09375000000000001px"/><path d="M417,368.69c1.39-.47,1.87,0,1.44,1.43C417.05,370.56,416.57,370.09,417,368.69Z" transform="translate(-54.17 -272.73)" style="stroke:#000;stroke-miterlimit:10.43;stroke-width:0.09375000000000001px"/><path d="M428,380.19c1.88,2.91,1.63,6.65,2.54,9.93.83,3.07-2.05,6.39,0,9.19,2.43,3.55.19,8.06-.47,11.87-1-3.53.71-7.54-1.68-10.64-1.76-2.16-.92-5-.85-7.49C428,388.77,427.51,384.46,428,380.19Z" transform="translate(-54.17 -272.73)" style="stroke:#000;stroke-miterlimit:10.43;stroke-width:0.09375000000000001px"/><path d="M122.09,384.89q2.44-.78,1.7,1.63C122.15,387,121.59,386.48,122.09,384.89Z" transform="translate(-54.17 -272.73)" style="stroke:#000;stroke-miterlimit:10.43;stroke-width:0.09375000000000001px"/><path d="M175.93,389c1.06.9,2.12,1.8,3.2,2.69,1.21-.93,2.4-1.9,3.6-2.85-.13,1.15-.27,2.31-.4,3.47,1.56.16,3.13.25,4.71.34-1.85,1.58-3.65,3.45-6.26,3.48-.24-1.43-.47-2.85-.72-4.27-.93.7-1.86,1.42-2.78,2.14C176.86,392.31,176.39,390.65,175.93,389Z" transform="translate(-54.17 -272.73)" style="stroke:#000;stroke-miterlimit:10.43;stroke-width:0.09375000000000001px"/><path d="M539,388.94q2.4-.74,1.58,1.74Q538.12,391.34,539,388.94Z" transform="translate(-54.17 -272.73)" style="stroke:#000;stroke-miterlimit:10.43;stroke-width:0.09375000000000001px"/><path d="M148.24,391.87c1.66-.51,2.24,0,1.74,1.6Q147.48,394.22,148.24,391.87Z" transform="translate(-54.17 -272.73)" style="stroke:#000;stroke-miterlimit:10.43;stroke-width:0.09375000000000001px"/><path d="M177.28,395.28" transform="translate(-54.17 -272.73)" style="stroke:#000;stroke-miterlimit:10.43;stroke-width:0.09375000000000001px"/><path d="M323.2,417.47c1.35-1.06,3.41,1.16,1.81,2.21C323.64,420.69,321.55,418.53,323.2,417.47Z" transform="translate(-54.17 -272.73)" style="stroke:#000;stroke-miterlimit:10.43;stroke-width:0.09375000000000001px"/><path d="M458.12,429.82q2.49-.78,1.74,1.58C458.19,431.91,457.61,431.39,458.12,429.82Z" transform="translate(-54.17 -272.73)" style="stroke:#000;stroke-miterlimit:10.43;stroke-width:0.09375000000000001px"/><path d="M654.86,429.82q2.43-.79,1.7,1.63C654.91,432,654.34,431.4,654.86,429.82Z" transform="translate(-54.17 -272.73)" style="stroke:#000;stroke-miterlimit:10.43;stroke-width:0.09375000000000001px"/></svg>